# xmcd
# 
# Track frame offsets:
#     150
#     10570
#     22475
#     32537
#     48777
#     61260
#     71580
#     86932
#     97995
#     107240
#     119400
#     131750
#     145190
#     164045
#     172522
#     183082
# 
# Disc length: 2594
# 
# Revision: 2
# Processed by: cddbd v1.5.2PL0 Copyright (c) Steve Scherf et al.
# Submitted via: BonkEnc v1.0.8
# 
DISCID=d30a2010
DTITLE=Kentucky Boys - Felt so wild
DYEAR=1994
DGENRE=Rockabilly
TTITLE0=Jelly Jane
TTITLE1=Cigarettes and Whiskey
TTITLE2=Cotton fields
TTITLE3=Echter Rockabillly
TTITLE4=Feelin'
TTITLE5=Dortmunder Union Tribut
TTITLE6=Sea of heartbreak
TTITLE7=Felt so wild
TTITLE8=Too much wine
TTITLE9=Bis zum letzten Atemzug
TTITLE10=Mama don't like
TTITLE11=Problem Kind
TTITLE12=KB Special
TTITLE13=Rockin' Daddy
TTITLE14=Ugly and sloughy
TTITLE15=I'll come back
EXTD=
EXTT0=
EXTT1=
EXTT2=
EXTT3=
EXTT4=
EXTT5=
EXTT6=
EXTT7=
EXTT8=
EXTT9=
EXTT10=
EXTT11=
EXTT12=
EXTT13=
EXTT14=
EXTT15=
PLAYORDER=
